<svg xmlns="http://www.w3.org/2000/svg" xmlns:xlink="http://www.w3.org/1999/xlink" xmlns:lucid="lucid" width="919" height="1062"><g transform="translate(-392 0)" lucid:page-tab-id="HWEp-vi-RSFO"><path d="M0 0h1760v1360H0z" fill="#fff"/><path d="M730 178.12h300v198H730z" stroke="#333" stroke-width="2" fill="#fff"/><path d="M730 215.72h300m-300 69.54h300" stroke="#333" stroke-width="2" fill="none"/><use xlink:href="#a" transform="matrix(1,0,0,1,738,186.11475464915665) translate(92.625 14.6)"/><use xlink:href="#b" transform="matrix(1,0,0,1,742,223.71475464915665) translate(0 19.799999999999997)"/><use xlink:href="#c" transform="matrix(1,0,0,1,742,223.71475464915665) translate(10.95 19.799999999999997)"/><use xlink:href="#d" transform="matrix(1,0,0,1,742,223.71475464915665) translate(92.85000000000001 19.799999999999997)"/><use xlink:href="#b" transform="matrix(1,0,0,1,742,223.71475464915665) translate(0 41.4)"/><use xlink:href="#e" transform="matrix(1,0,0,1,742,223.71475464915665) translate(10.95 41.4)"/><use xlink:href="#f" transform="matrix(1,0,0,1,742,223.71475464915665) translate(96.85000000000001 41.4)"/><use xlink:href="#b" transform="matrix(1,0,0,1,742,293.26324430542104) translate(0 20)"/><use xlink:href="#g" transform="matrix(1,0,0,1,742,293.26324430542104) translate(10.95 20)"/><use xlink:href="#h" transform="matrix(1,0,0,1,742,293.26324430542104) translate(0 41.6)"/><use xlink:href="#i" transform="matrix(1,0,0,1,742,293.26324430542104) translate(15.5 41.6)"/><use xlink:href="#h" transform="matrix(1,0,0,1,742,293.26324430542104) translate(0 63.2)"/><use xlink:href="#j" transform="matrix(1,0,0,1,742,293.26324430542104) translate(15.5 63.2)"/><path d="M453.15 75a8 8 0 0 1 8-8h836.75a8 8 0 0 1 8 8v25.16a8 8 0 0 1-8 8H461.15a8 8 0 0 1-8-8z" stroke="#000" stroke-opacity="0" stroke-width="2" fill="#fff" fill-opacity="0"/><use xlink:href="#k" transform="matrix(1,0,0,1,457.1465527853429,70.99999999994924) translate(259.22604938271604 23.657777777777778)"/><use xlink:href="#l" transform="matrix(1,0,0,1,457.1465527853429,70.99999999994924) translate(366.9556790123457 23.657777777777778)"/><use xlink:href="#m" transform="matrix(1,0,0,1,457.1465527853429,70.99999999994924) translate(404.75938271604934 23.657777777777778)"/><use xlink:href="#n" transform="matrix(1,0,0,1,457.1465527853429,70.99999999994924) translate(509.42975308641974 23.657777777777778)"/><path d="M729.63 106.8H1039M729.65 106.8h-1.02M1038.96 106.8h1.03" stroke="#a9afb8" stroke-width="2" fill="none"/><path d="M453.15 116.16a8 8 0 0 1 8-8h837.7a8 8 0 0 1 8 8V119a8 8 0 0 1-8 8h-837.7a8 8 0 0 1-8-8z" stroke="#000" stroke-opacity="0" stroke-width="2" fill="#fff" fill-opacity="0"/><use xlink:href="#o" transform="matrix(1,0,0,1,457.1465527853434,112.15522395684805) translate(251.93222222222224 14.917037037037037)"/><use xlink:href="#p" transform="matrix(1,0,0,1,457.1465527853434,112.15522395684805) translate(323.48489711934155 14.917037037037037)"/><use xlink:href="#q" transform="matrix(1,0,0,1,457.1465527853434,112.15522395684805) translate(374.93993827160494 14.917037037037037)"/><use xlink:href="#r" transform="matrix(1,0,0,1,457.1465527853434,112.15522395684805) translate(441.0964197530864 14.917037037037037)"/><use xlink:href="#s" transform="matrix(1,0,0,1,457.1465527853434,112.15522395684805) translate(504.15115226337446 14.917037037037037)"/><use xlink:href="#t" transform="matrix(1,0,0,1,457.1465527853434,112.15522395684805) translate(516.6006378600823 14.917037037037037)"/><use xlink:href="#u" transform="matrix(1,0,0,1,457.1465527853434,112.15522395684805) translate(549.7001234567902 14.917037037037037)"/><use xlink:href="#v" transform="matrix(1,0,0,1,457.1465527853434,112.15522395684805) translate(566.6960082304527 14.917037037037037)"/><path d="M508.87 454.35h360v221h-360z" stroke="#333" stroke-width="2" fill="#fff"/><path d="M508.87 491.94h360m-360 123.9h360" stroke="#333" stroke-width="2" fill="none"/><use xlink:href="#w" transform="matrix(1,0,0,1,516.8712879440008,462.3453500375915) translate(144.575 14.6)"/><use xlink:href="#x" transform="matrix(1,0,0,1,520.8712879440008,499.94535003759154) translate(117.1 25.19999999999999)"/><use xlink:href="#y" transform="matrix(1,0,0,1,520.8712879440008,499.94535003759154) translate(128.04999999999998 25.19999999999999)"/><use xlink:href="#z" transform="matrix(1,0,0,1,520.8712879440008,499.94535003759154) translate(198.95 25.19999999999999)"/><use xlink:href="#x" transform="matrix(1,0,0,1,520.8712879440008,499.94535003759154) translate(133.075 46.79999999999999)"/><use xlink:href="#A" transform="matrix(1,0,0,1,520.8712879440008,499.94535003759154) translate(144.02499999999998 46.79999999999999)"/><use xlink:href="#z" transform="matrix(1,0,0,1,520.8712879440008,499.94535003759154) translate(182.975 46.79999999999999)"/><use xlink:href="#x" transform="matrix(1,0,0,1,520.8712879440008,499.94535003759154) translate(97.125 68.39999999999999)"/><use xlink:href="#B" transform="matrix(1,0,0,1,520.8712879440008,499.94535003759154) translate(108.075 68.39999999999999)"/><use xlink:href="#C" transform="matrix(1,0,0,1,520.8712879440008,499.94535003759154) translate(204.925 68.39999999999999)"/><use xlink:href="#x" transform="matrix(1,0,0,1,520.8712879440008,499.94535003759154) translate(93.64999999999999 90)"/><use xlink:href="#D" transform="matrix(1,0,0,1,520.8712879440008,499.94535003759154) translate(104.6 90)"/><use xlink:href="#E" transform="matrix(1,0,0,1,520.8712879440008,499.94535003759154) translate(208.4 90)"/><g><use xlink:href="#x" transform="matrix(1,0,0,1,520.8712879440008,623.8453500375915) translate(108.69999999999999 25.6)"/><use xlink:href="#F" transform="matrix(1,0,0,1,520.8712879440008,623.8453500375915) translate(119.64999999999999 25.6)"/><use xlink:href="#G" transform="matrix(1,0,0,1,520.8712879440008,623.8453500375915) translate(215.4 25.6)"/></g><path d="M894.1 454.35h360v221h-360z" stroke="#333" stroke-width="2" fill="#fff"/><path d="M894.1 491.94h360m-360 123.9h360" stroke="#333" stroke-width="2" fill="none"/><g><use xlink:href="#H" transform="matrix(1,0,0,1,902.1054087140784,462.34535003759146) translate(144.575 14.6)"/></g><g><use xlink:href="#x" transform="matrix(1,0,0,1,906.1054087140784,499.9453500375915) translate(116.57499999999999 25.19999999999999)"/><use xlink:href="#I" transform="matrix(1,0,0,1,906.1054087140784,499.9453500375915) translate(127.52499999999999 25.19999999999999)"/><use xlink:href="#z" transform="matrix(1,0,0,1,906.1054087140784,499.9453500375915) translate(199.475 25.19999999999999)"/><use xlink:href="#x" transform="matrix(1,0,0,1,906.1054087140784,499.9453500375915) translate(130.075 46.79999999999999)"/><use xlink:href="#J" transform="matrix(1,0,0,1,906.1054087140784,499.9453500375915) translate(141.02499999999998 46.79999999999999)"/><use xlink:href="#z" transform="matrix(1,0,0,1,906.1054087140784,499.9453500375915) translate(185.975 46.79999999999999)"/><use xlink:href="#x" transform="matrix(1,0,0,1,906.1054087140784,499.9453500375915) translate(128.05 68.39999999999999)"/><use xlink:href="#K" transform="matrix(1,0,0,1,906.1054087140784,499.9453500375915) translate(139 68.39999999999999)"/><use xlink:href="#L" transform="matrix(1,0,0,1,906.1054087140784,499.9453500375915) translate(189 68.39999999999999)"/><use xlink:href="#x" transform="matrix(1,0,0,1,906.1054087140784,499.9453500375915) translate(121.05 90)"/><use xlink:href="#M" transform="matrix(1,0,0,1,906.1054087140784,499.9453500375915) translate(132 90)"/><use xlink:href="#E" transform="matrix(1,0,0,1,906.1054087140784,499.9453500375915) translate(181 90)"/></g><g><use xlink:href="#N" transform="matrix(1,0,0,1,906.1054087140784,623.8453500375915) translate(112.85 25.6)"/><use xlink:href="#G" transform="matrix(1,0,0,1,906.1054087140784,623.8453500375915) translate(211.25 25.6)"/></g><path d="M688.87 452.85v-25.62a12 12 0 0 1 12-12h111.18a12 12 0 0 0 12-12v-3.1" stroke="#333" fill="none"/><path d="M689.35 453.35h-.95v-.52h.95z" stroke="#333" stroke-width=".05" fill="#333"/><path d="M824.05 378.1l12.73 21.52h-25.45z" stroke="#333" fill="#fff"/><path d="M1074.1 452.85v-25.62a12 12 0 0 0-12-12H955.4a12 12 0 0 1-12-12v-3.1" stroke="#333" fill="none"/><path d="M1074.58 453.35h-.95v-.52h.95z" stroke="#333" stroke-width=".05" fill="#333"/><path d="M943.4 378.1l12.73 21.52h-25.45z" stroke="#333" fill="#fff"/><path d="M700 753.88h360v221H700z" stroke="#333" stroke-width="2" fill="#fff"/><path d="M700 791.48h360m-360 80.7h360" stroke="#333" stroke-width="2" fill="none"/><g><use xlink:href="#O" transform="matrix(1,0,0,1,708,761.8813191499091) translate(145.05 14.6)"/></g><g><use xlink:href="#x" transform="matrix(1,0,0,1,712,799.4813191499092) translate(120.6 25.299999999999997)"/><use xlink:href="#P" transform="matrix(1,0,0,1,712,799.4813191499092) translate(131.54999999999998 25.299999999999997)"/><use xlink:href="#Q" transform="matrix(1,0,0,1,712,799.4813191499092) translate(205.39999999999998 25.299999999999997)"/><use xlink:href="#x" transform="matrix(1,0,0,1,712,799.4813191499092) translate(115.6 46.9)"/><use xlink:href="#R" transform="matrix(1,0,0,1,712,799.4813191499092) translate(126.55 46.9)"/><use xlink:href="#S" transform="matrix(1,0,0,1,712,799.4813191499092) translate(210.39999999999998 46.9)"/></g><g><use xlink:href="#x" transform="matrix(1,0,0,1,712,880.1813191499092) translate(124.625 25.5)"/><use xlink:href="#T" transform="matrix(1,0,0,1,712,880.1813191499092) translate(135.575 25.5)"/><use xlink:href="#x" transform="matrix(1,0,0,1,712,880.1813191499092) translate(121.69999999999999 47.1)"/><use xlink:href="#U" transform="matrix(1,0,0,1,712,880.1813191499092) translate(132.64999999999998 47.1)"/><use xlink:href="#V" transform="matrix(1,0,0,1,712,880.1813191499092) translate(202.39999999999998 47.1)"/><use xlink:href="#W" transform="matrix(1,0,0,1,712,880.1813191499092) translate(73.425 68.7)"/><use xlink:href="#G" transform="matrix(1,0,0,1,712,880.1813191499092) translate(250.675 68.7)"/></g><path d="M819.7 752.38V726.6a12 12 0 0 0-12-12H700.86a12 12 0 0 1-12-12v-3.25" stroke="#333" fill="none"/><path d="M820.16 752.88h-.95v-.5h.96z" stroke="#333" stroke-width=".05" fill="#333"/><path d="M688.87 677.33l12.73 21.52h-25.46z" stroke="#333" fill="#fff"/><path d="M940.94 752.38V726.6a12 12 0 0 1 12-12h109.16a12 12 0 0 0 12-12v-3.25" stroke="#333" fill="none"/><path d="M941.42 752.88h-.95v-.5h.95z" stroke="#333" stroke-width=".05" fill="#333"/><path d="M1074.1 677.33l12.73 21.52h-25.45z" stroke="#333" fill="#fff"/><defs><path fill="#333" d="M24-248c93 1 206-16 204 79-1 75-69 88-152 82V0H24v-248zm52 121c47 0 100 7 100-41 0-47-54-39-100-39v80" id="X"/><path fill="#333" d="M135-150c-39-12-60 13-60 57V0H25l-1-190h47c2 13-1 29 3 40 6-28 27-53 61-41v41" id="Y"/><path fill="#333" d="M110-194c64 0 96 36 96 99 0 64-35 99-97 99-61 0-95-36-95-99 0-62 34-99 96-99zm-1 164c35 0 45-28 45-65 0-40-10-65-43-65-34 0-45 26-45 65 0 36 10 65 43 65" id="Z"/><path fill="#333" d="M88-194c31-1 46 15 58 34l-1-101h50l1 261h-48c-2-10 0-23-3-31C134-8 116 4 84 4 32 4 16-41 15-95c0-56 19-97 73-99zm17 164c33 0 40-30 41-66 1-37-9-64-41-64s-38 30-39 65c0 43 13 65 39 65" id="aa"/><path fill="#333" d="M85 4C-2 5 27-109 22-190h50c7 57-23 150 33 157 60-5 35-97 40-157h50l1 190h-47c-2-12 1-28-3-38-12 25-28 42-61 42" id="ab"/><path fill="#333" d="M190-63c-7 42-38 67-86 67-59 0-84-38-90-98-12-110 154-137 174-36l-49 2c-2-19-15-32-35-32-30 0-35 28-38 64-6 74 65 87 74 30" id="ac"/><path fill="#333" d="M25-224v-37h50v37H25zM25 0v-190h50V0H25" id="ad"/><path fill="#333" d="M110-194c64 0 96 36 96 99 0 64-35 99-97 99-61 0-95-36-95-99 0-62 34-99 96-99zm-1 164c35 0 45-28 45-65 0-40-10-65-43-65-34 0-45 26-45 65 0 36 10 65 43 65zM81-208v-5l45-51h45v8l-60 48H81" id="ae"/><path fill="#333" d="M135-194c87-1 58 113 63 194h-50c-7-57 23-157-34-157-59 0-34 97-39 157H25l-1-190h47c2 12-1 28 3 38 12-26 28-41 61-42" id="af"/><g id="a"><use transform="matrix(0.05,0,0,0.05,0,0)" xlink:href="#X"/><use transform="matrix(0.05,0,0,0.05,12,0)" xlink:href="#Y"/><use transform="matrix(0.05,0,0,0.05,19,0)" xlink:href="#Z"/><use transform="matrix(0.05,0,0,0.05,29.950000000000003,0)" xlink:href="#aa"/><use transform="matrix(0.05,0,0,0.05,40.900000000000006,0)" xlink:href="#ab"/><use transform="matrix(0.05,0,0,0.05,51.85,0)" xlink:href="#ac"/><use transform="matrix(0.05,0,0,0.05,61.85,0)" xlink:href="#ac"/><use transform="matrix(0.05,0,0,0.05,71.85000000000001,0)" xlink:href="#ad"/><use transform="matrix(0.05,0,0,0.05,76.85000000000001,0)" xlink:href="#ae"/><use transform="matrix(0.05,0,0,0.05,87.80000000000001,0)" xlink:href="#af"/></g><path fill="#333" d="M16-82v-28h88v28H16" id="ag"/><use transform="matrix(0.05,0,0,0.05,0,0)" xlink:href="#ag" id="b"/><path fill="#333" d="M212-179c-10-28-35-45-73-45-59 0-87 40-87 99 0 60 29 101 89 101 43 0 62-24 78-52l27 14C228-24 195 4 139 4 59 4 22-46 18-125c-6-104 99-153 187-111 19 9 31 26 39 46" id="ah"/><path fill="#333" d="M141-36C126-15 110 5 73 4 37 3 15-17 15-53c-1-64 63-63 125-63 3-35-9-54-41-54-24 1-41 7-42 31l-33-3c5-37 33-52 76-52 45 0 72 20 72 64v82c-1 20 7 32 28 27v20c-31 9-61-2-59-35zM48-53c0 20 12 33 32 33 41-3 63-29 60-74-43 2-92-5-92 41" id="ai"/><path fill="#333" d="M117-194c89-4 53 116 60 194h-32v-121c0-31-8-49-39-48C34-167 62-67 57 0H25l-1-190h30c1 10-1 24 2 32 11-22 29-35 61-36" id="aj"/><path fill="#333" d="M59-47c-2 24 18 29 38 22v24C64 9 27 4 27-40v-127H5v-23h24l9-43h21v43h35v23H59v120" id="ak"/><path fill="#333" d="M24-231v-30h32v30H24zM24 0v-190h32V0H24" id="al"/><path fill="#333" d="M85-194c31 0 48 13 60 33l-1-100h32l1 261h-30c-2-10 0-23-3-31C134-8 116 4 85 4 32 4 16-35 15-94c0-66 23-100 70-100zm9 24c-40 0-46 34-46 75 0 40 6 74 45 74 42 0 51-32 51-76 0-42-9-74-50-73" id="am"/><path fill="#333" d="M33-154v-36h34v36H33zM33 0v-36h34V0H33" id="an"/><g id="c"><use transform="matrix(0.05,0,0,0.05,0,0)" xlink:href="#ah"/><use transform="matrix(0.05,0,0,0.05,12.950000000000001,0)" xlink:href="#ai"/><use transform="matrix(0.05,0,0,0.05,22.950000000000003,0)" xlink:href="#aj"/><use transform="matrix(0.05,0,0,0.05,32.95,0)" xlink:href="#ak"/><use transform="matrix(0.05,0,0,0.05,37.95,0)" xlink:href="#al"/><use transform="matrix(0.05,0,0,0.05,41.900000000000006,0)" xlink:href="#am"/><use transform="matrix(0.05,0,0,0.05,51.900000000000006,0)" xlink:href="#ai"/><use transform="matrix(0.05,0,0,0.05,61.900000000000006,0)" xlink:href="#am"/><use transform="matrix(0.05,0,0,0.05,71.9,0)" xlink:href="#an"/></g><path fill="#333" d="M101-234c-31-9-42 10-38 44h38v23H63V0H32v-167H5v-23h27c-7-52 17-82 69-68v24" id="ao"/><path fill="#333" d="M24 0v-261h32V0H24" id="ap"/><path fill="#333" d="M100-194c62-1 85 37 85 99 1 63-27 99-86 99S16-35 15-95c0-66 28-99 85-99zM99-20c44 1 53-31 53-75 0-43-8-75-51-75s-53 32-53 75 10 74 51 75" id="aq"/><g id="d"><use transform="matrix(0.05,0,0,0.05,0,0)" xlink:href="#ao"/><use transform="matrix(0.05,0,0,0.05,5,0)" xlink:href="#ap"/><use transform="matrix(0.05,0,0,0.05,8.95,0)" xlink:href="#aq"/><use transform="matrix(0.05,0,0,0.05,18.95,0)" xlink:href="#ai"/><use transform="matrix(0.05,0,0,0.05,28.950000000000003,0)" xlink:href="#ak"/></g><path fill="#333" d="M232-93c-1 65-40 97-104 97C67 4 28-28 28-90v-158h33c8 89-33 224 67 224 102 0 64-133 71-224h33v155" id="ar"/><path fill="#333" d="M100-194c63 0 86 42 84 106H49c0 40 14 67 53 68 26 1 43-12 49-29l28 8c-11 28-37 45-77 45C44 4 14-33 15-96c1-61 26-98 85-98zm52 81c6-60-76-77-97-28-3 7-6 17-6 28h103" id="as"/><path fill="#333" d="M135-143c-3-34-86-38-87 0 15 53 115 12 119 90S17 21 10-45l28-5c4 36 97 45 98 0-10-56-113-15-118-90-4-57 82-63 122-42 12 7 21 19 24 35" id="at"/><g id="e"><use transform="matrix(0.05,0,0,0.05,0,0)" xlink:href="#ar"/><use transform="matrix(0.05,0,0,0.05,12.950000000000001,0)" xlink:href="#aj"/><use transform="matrix(0.05,0,0,0.05,22.950000000000003,0)" xlink:href="#al"/><use transform="matrix(0.05,0,0,0.05,26.900000000000002,0)" xlink:href="#am"/><use transform="matrix(0.05,0,0,0.05,36.900000000000006,0)" xlink:href="#ai"/><use transform="matrix(0.05,0,0,0.05,46.900000000000006,0)" xlink:href="#am"/><use transform="matrix(0.05,0,0,0.05,56.900000000000006,0)" xlink:href="#as"/><use transform="matrix(0.05,0,0,0.05,66.9,0)" xlink:href="#at"/><use transform="matrix(0.05,0,0,0.05,75.9,0)" xlink:href="#an"/></g><path fill="#333" d="M114-163C36-179 61-72 57 0H25l-1-190h30c1 12-1 29 2 39 6-27 23-49 58-41v29" id="au"/><g id="f"><use transform="matrix(0.05,0,0,0.05,0,0)" xlink:href="#at"/><use transform="matrix(0.05,0,0,0.05,9,0)" xlink:href="#ak"/><use transform="matrix(0.05,0,0,0.05,14,0)" xlink:href="#au"/></g><path fill="#333" d="M-5 72V49h209v23H-5" id="av"/><path fill="#333" d="M87 75C49 33 22-17 22-94c0-76 28-126 65-167h31c-38 41-64 92-64 168S80 34 118 75H87" id="aw"/><path fill="#333" d="M33-261c38 41 65 92 65 168S71 34 33 75H2C39 34 66-17 66-93S39-220 2-261h31" id="ax"/><g id="g"><use transform="matrix(0.05,0,0,0.05,0,0)" xlink:href="#av"/><use transform="matrix(0.05,0,0,0.05,10,0)" xlink:href="#av"/><use transform="matrix(0.05,0,0,0.05,20,0)" xlink:href="#at"/><use transform="matrix(0.05,0,0,0.05,29,0)" xlink:href="#ak"/><use transform="matrix(0.05,0,0,0.05,34,0)" xlink:href="#au"/><use transform="matrix(0.05,0,0,0.05,39.95,0)" xlink:href="#av"/><use transform="matrix(0.05,0,0,0.05,49.95,0)" xlink:href="#av"/><use transform="matrix(0.05,0,0,0.05,59.95,0)" xlink:href="#aw"/><use transform="matrix(0.05,0,0,0.05,65.9,0)" xlink:href="#ax"/></g><path fill="#333" d="M118-107v75H92v-75H18v-26h74v-75h26v75h74v26h-74" id="ay"/><use transform="matrix(0.05,0,0,0.05,0,0)" xlink:href="#ay" id="h"/><path fill="#333" d="M177-190C167-65 218 103 67 71c-23-6-38-20-44-43l32-5c15 47 100 32 89-28v-30C133-14 115 1 83 1 29 1 15-40 15-95c0-56 16-97 71-98 29-1 48 16 59 35 1-10 0-23 2-32h30zM94-22c36 0 50-32 50-73 0-42-14-75-50-75-39 0-46 34-46 75s6 73 46 73" id="az"/><g id="i"><use transform="matrix(0.05,0,0,0.05,0,0)" xlink:href="#az"/><use transform="matrix(0.05,0,0,0.05,10,0)" xlink:href="#as"/><use transform="matrix(0.05,0,0,0.05,20,0)" xlink:href="#ak"/><use transform="matrix(0.05,0,0,0.05,25,0)" xlink:href="#av"/><use transform="matrix(0.05,0,0,0.05,35,0)" xlink:href="#ah"/><use transform="matrix(0.05,0,0,0.05,47.95,0)" xlink:href="#ai"/><use transform="matrix(0.05,0,0,0.05,57.95,0)" xlink:href="#aj"/><use transform="matrix(0.05,0,0,0.05,67.95,0)" xlink:href="#ak"/><use transform="matrix(0.05,0,0,0.05,72.95,0)" xlink:href="#al"/><use transform="matrix(0.05,0,0,0.05,76.9,0)" xlink:href="#am"/><use transform="matrix(0.05,0,0,0.05,86.9,0)" xlink:href="#ai"/><use transform="matrix(0.05,0,0,0.05,96.9,0)" xlink:href="#am"/><use transform="matrix(0.05,0,0,0.05,106.9,0)" xlink:href="#aw"/><use transform="matrix(0.05,0,0,0.05,112.85000000000001,0)" xlink:href="#ax"/></g><g id="j"><use transform="matrix(0.05,0,0,0.05,0,0)" xlink:href="#az"/><use transform="matrix(0.05,0,0,0.05,10,0)" xlink:href="#as"/><use transform="matrix(0.05,0,0,0.05,20,0)" xlink:href="#ak"/><use transform="matrix(0.05,0,0,0.05,25,0)" xlink:href="#av"/><use transform="matrix(0.05,0,0,0.05,35,0)" xlink:href="#ar"/><use transform="matrix(0.05,0,0,0.05,47.95,0)" xlink:href="#aj"/><use transform="matrix(0.05,0,0,0.05,57.95,0)" xlink:href="#al"/><use transform="matrix(0.05,0,0,0.05,61.900000000000006,0)" xlink:href="#am"/><use transform="matrix(0.05,0,0,0.05,71.9,0)" xlink:href="#ai"/><use transform="matrix(0.05,0,0,0.05,81.9,0)" xlink:href="#am"/><use transform="matrix(0.05,0,0,0.05,91.9,0)" xlink:href="#as"/><use transform="matrix(0.05,0,0,0.05,101.9,0)" xlink:href="#at"/><use transform="matrix(0.05,0,0,0.05,110.9,0)" xlink:href="#aw"/><use transform="matrix(0.05,0,0,0.05,116.85000000000001,0)" xlink:href="#ax"/></g><path fill="#a9afb8" d="M169-182c-1-43-94-46-97-3 18 66 151 10 154 114 3 95-165 93-204 36-6-8-10-19-12-30l50-8c3 46 112 56 116 5-17-69-150-10-154-114-4-87 153-88 188-35 5 8 8 18 10 28" id="aA"/><path fill="#a9afb8" d="M25-224v-37h50v37H25zM25 0v-190h50V0H25" id="aB"/><path fill="#a9afb8" d="M137-138c1-29-70-34-71-4 15 46 118 7 119 86 1 83-164 76-172 9l43-7c4 19 20 25 44 25 33 8 57-30 24-41C81-84 22-81 20-136c-2-80 154-74 161-7" id="aC"/><path fill="#a9afb8" d="M115-3C79 11 28 4 28-45v-112H4v-33h27l15-45h31v45h36v33H77v99c-1 23 16 31 38 25v30" id="aD"/><path fill="#a9afb8" d="M185-48c-13 30-37 53-82 52C43 2 14-33 14-96s30-98 90-98c62 0 83 45 84 108H66c0 31 8 55 39 56 18 0 30-7 34-22zm-45-69c5-46-57-63-70-21-2 6-4 13-4 21h74" id="aE"/><path fill="#a9afb8" d="M220-157c-53 9-28 100-34 157h-49v-107c1-27-5-49-29-50C55-147 81-57 75 0H25l-1-190h47c2 12-1 28 3 38 10-53 101-56 108 0 13-22 24-43 59-42 82 1 51 116 57 194h-49v-107c-1-25-5-48-29-50" id="aF"/><path fill="#a9afb8" d="M133-34C117-15 103 5 69 4 32 3 11-16 11-54c-1-60 55-63 116-61 1-26-3-47-28-47-18 1-26 9-28 27l-52-2c7-38 36-58 82-57s74 22 75 68l1 82c-1 14 12 18 25 15v27c-30 8-71 5-69-32zm-48 3c29 0 43-24 42-57-32 0-66-3-65 30 0 17 8 27 23 27" id="aG"/><g id="k"><use transform="matrix(0.0728395061728395,0,0,0.0728395061728395,0,0)" xlink:href="#aA"/><use transform="matrix(0.0728395061728395,0,0,0.0728395061728395,17.48148148148148,0)" xlink:href="#aB"/><use transform="matrix(0.0728395061728395,0,0,0.0728395061728395,24.76543209876543,0)" xlink:href="#aC"/><use transform="matrix(0.0728395061728395,0,0,0.0728395061728395,39.333333333333336,0)" xlink:href="#aD"/><use transform="matrix(0.0728395061728395,0,0,0.0728395061728395,48.00123456790123,0)" xlink:href="#aE"/><use transform="matrix(0.0728395061728395,0,0,0.0728395061728395,62.56913580246913,0)" xlink:href="#aF"/><use transform="matrix(0.0728395061728395,0,0,0.0728395061728395,85.87777777777777,0)" xlink:href="#aG"/></g><path fill="#a9afb8" d="M88-194c31-1 46 15 58 34l-1-101h50l1 261h-48c-2-10 0-23-3-31C134-8 116 4 84 4 32 4 16-41 15-95c0-56 19-97 73-99zm17 164c33 0 40-30 41-66 1-37-9-64-41-64s-38 30-39 65c0 43 13 65 39 65" id="aH"/><g id="l"><use transform="matrix(0.0728395061728395,0,0,0.0728395061728395,0,0)" xlink:href="#aH"/><use transform="matrix(0.0728395061728395,0,0,0.0728395061728395,15.95185185185185,0)" xlink:href="#aE"/></g><path fill="#a9afb8" d="M67-125c0 54 23 88 75 88 28 0 53-7 68-21v-34h-60v-39h108v91C232-14 192 4 140 4 58 4 20-42 15-125 8-236 126-280 215-234c19 10 29 26 37 47l-47 15c-11-23-29-39-63-39-53 1-75 33-75 86" id="aI"/><path fill="#a9afb8" d="M110-194c64 0 96 36 96 99 0 64-35 99-97 99-61 0-95-36-95-99 0-62 34-99 96-99zm-1 164c35 0 45-28 45-65 0-40-10-65-43-65-34 0-45 26-45 65 0 36 10 65 43 65zM81-208v-5l45-51h45v8l-60 48H81" id="aJ"/><path fill="#a9afb8" d="M135-194c87-1 58 113 63 194h-50c-7-57 23-157-34-157-59 0-34 97-39 157H25l-1-190h47c2 12-1 28 3 38 12-26 28-41 61-42" id="aK"/><g id="m"><use transform="matrix(0.0728395061728395,0,0,0.0728395061728395,0,0)" xlink:href="#aI"/><use transform="matrix(0.0728395061728395,0,0,0.0728395061728395,20.39506172839506,0)" xlink:href="#aE"/><use transform="matrix(0.0728395061728395,0,0,0.0728395061728395,34.96296296296296,0)" xlink:href="#aC"/><use transform="matrix(0.0728395061728395,0,0,0.0728395061728395,49.53086419753086,0)" xlink:href="#aD"/><use transform="matrix(0.0728395061728395,0,0,0.0728395061728395,58.19876543209875,0)" xlink:href="#aB"/><use transform="matrix(0.0728395061728395,0,0,0.0728395061728395,65.48271604938272,0)" xlink:href="#aJ"/><use transform="matrix(0.0728395061728395,0,0,0.0728395061728395,81.43456790123457,0)" xlink:href="#aK"/></g><path fill="#a9afb8" d="M135-150c-39-12-60 13-60 57V0H25l-1-190h47c2 13-1 29 3 40 6-28 27-53 61-41v41" id="aL"/><path fill="#a9afb8" d="M25-224v-37h50v37H25zM75 22c2 45-34 59-81 51V38c22 5 31-5 31-27v-201h50V22" id="aM"/><g id="n"><use transform="matrix(0.0728395061728395,0,0,0.0728395061728395,0,0)" xlink:href="#aI"/><use transform="matrix(0.0728395061728395,0,0,0.0728395061728395,20.39506172839506,0)" xlink:href="#aL"/><use transform="matrix(0.0728395061728395,0,0,0.0728395061728395,30.592592592592588,0)" xlink:href="#aG"/><use transform="matrix(0.0728395061728395,0,0,0.0728395061728395,45.16049382716049,0)" xlink:href="#aK"/><use transform="matrix(0.0728395061728395,0,0,0.0728395061728395,61.112345679012336,0)" xlink:href="#aM"/><use transform="matrix(0.0728395061728395,0,0,0.0728395061728395,68.39629629629628,0)" xlink:href="#aG"/></g><path fill="#a9afb8" d="M240 0l2-218c-23 76-54 145-80 218h-23L58-218 59 0H30v-248h44l77 211c21-75 51-140 76-211h43V0h-30" id="aN"/><path fill="#a9afb8" d="M33 0v-248h34V0H33" id="aO"/><path fill="#a9afb8" d="M212-179c-10-28-35-45-73-45-59 0-87 40-87 99 0 60 29 101 89 101 43 0 62-24 78-52l27 14C228-24 195 4 139 4 59 4 22-46 18-125c-6-104 99-153 187-111 19 9 31 26 39 46" id="aP"/><path fill="#a9afb8" d="M197 0v-115H63V0H30v-248h33v105h134v-105h34V0h-34" id="aQ"/><path fill="#a9afb8" d="M205 0l-28-72H64L36 0H1l101-248h38L239 0h-34zm-38-99l-47-123c-12 45-31 82-46 123h93" id="aR"/><path fill="#a9afb8" d="M30 0v-248h187v28H63v79h144v27H63v87h162V0H30" id="aS"/><path fill="#a9afb8" d="M30 0v-248h33v221h125V0H30" id="aT"/><g id="o"><use transform="matrix(0.04248971193415638,0,0,0.04248971193415638,0,0)" xlink:href="#aN"/><use transform="matrix(0.04248971193415638,0,0,0.04248971193415638,12.704423868312757,0)" xlink:href="#aO"/><use transform="matrix(0.04248971193415638,0,0,0.04248971193415638,16.953395061728394,0)" xlink:href="#aP"/><use transform="matrix(0.04248971193415638,0,0,0.04248971193415638,27.958230452674897,0)" xlink:href="#aQ"/><use transform="matrix(0.04248971193415638,0,0,0.04248971193415638,38.9630658436214,0)" xlink:href="#aR"/><use transform="matrix(0.04248971193415638,0,0,0.04248971193415638,49.160596707818925,0)" xlink:href="#aS"/><use transform="matrix(0.04248971193415638,0,0,0.04248971193415638,59.35812757201647,0)" xlink:href="#aT"/></g><path fill="#a9afb8" d="M137-103V0h-34v-103L8-248h37l75 118 75-118h37" id="aU"/><path fill="#a9afb8" d="M30-248c118-7 216 8 213 122C240-48 200 0 122 0H30v-248zM63-27c89 8 146-16 146-99s-60-101-146-95v194" id="aV"/><g id="p"><use transform="matrix(0.04248971193415638,0,0,0.04248971193415638,0,0)" xlink:href="#aU"/><use transform="matrix(0.04248971193415638,0,0,0.04248971193415638,9.050308641975308,0)" xlink:href="#aR"/><use transform="matrix(0.04248971193415638,0,0,0.04248971193415638,19.247839506172838,0)" xlink:href="#aN"/><use transform="matrix(0.04248971193415638,0,0,0.04248971193415638,31.952263374485597,0)" xlink:href="#aO"/><use transform="matrix(0.04248971193415638,0,0,0.04248971193415638,36.20123456790123,0)" xlink:href="#aV"/></g><path fill="#a9afb8" d="M185-189c-5-48-123-54-124 2 14 75 158 14 163 119 3 78-121 87-175 55-17-10-28-26-33-46l33-7c5 56 141 63 141-1 0-78-155-14-162-118-5-82 145-84 179-34 5 7 8 16 11 25" id="aW"/><path fill="#a9afb8" d="M232-93c-1 65-40 97-104 97C67 4 28-28 28-90v-158h33c8 89-33 224 67 224 102 0 64-133 71-224h33v155" id="aX"/><path fill="#a9afb8" d="M233-177c-1 41-23 64-60 70L243 0h-38l-65-103H63V0H30v-248c88 3 205-21 203 71zM63-129c60-2 137 13 137-47 0-61-80-42-137-45v92" id="aY"/><path fill="#a9afb8" d="M209 0H11v-25l151-195H24v-28h176v25L50-27h159V0" id="aZ"/><g id="q"><use transform="matrix(0.04248971193415638,0,0,0.04248971193415638,0,0)" xlink:href="#aW"/><use transform="matrix(0.04248971193415638,0,0,0.04248971193415638,10.19753086419753,0)" xlink:href="#aX"/><use transform="matrix(0.04248971193415638,0,0,0.04248971193415638,21.20236625514403,0)" xlink:href="#aR"/><use transform="matrix(0.04248971193415638,0,0,0.04248971193415638,31.399897119341556,0)" xlink:href="#aY"/><use transform="matrix(0.04248971193415638,0,0,0.04248971193415638,42.40473251028806,0)" xlink:href="#aS"/><use transform="matrix(0.04248971193415638,0,0,0.04248971193415638,52.602263374485595,0)" xlink:href="#aZ"/></g><path fill="#a9afb8" d="M30-248c87 1 191-15 191 75 0 78-77 80-158 76V0H30v-248zm33 125c57 0 124 11 124-50 0-59-68-47-124-48v98" id="ba"/><path fill="#a9afb8" d="M127-220V0H93v-220H8v-28h204v28h-85" id="bb"/><path fill="#a9afb8" d="M195-316c-3 24-8 48-35 47-28-1-64-43-75 0H69c4-23 8-48 36-47s64 44 74 0h16zM190 0L58-211 59 0H30v-248h39L202-35l-2-213h31V0h-41" id="bc"/><path fill="#a9afb8" d="M140-251c81 0 123 46 123 126C263-46 219 4 140 4 59 4 17-45 17-125s42-126 123-126zm0 227c63 0 89-41 89-101s-29-99-89-99c-61 0-89 39-89 99S79-25 140-24" id="bd"/><g id="r"><use transform="matrix(0.04248971193415638,0,0,0.04248971193415638,0,0)" xlink:href="#ba"/><use transform="matrix(0.04248971193415638,0,0,0.04248971193415638,9.050308641975308,0)" xlink:href="#aR"/><use transform="matrix(0.04248971193415638,0,0,0.04248971193415638,18.100617283950616,0)" xlink:href="#bb"/><use transform="matrix(0.04248971193415638,0,0,0.04248971193415638,27.405864197530857,0)" xlink:href="#aO"/><use transform="matrix(0.04248971193415638,0,0,0.04248971193415638,31.654835390946502,0)" xlink:href="#bc"/><use transform="matrix(0.04248971193415638,0,0,0.04248971193415638,42.659670781893,0)" xlink:href="#bd"/></g><path fill="#a9afb8" d="M32 76v-337h29V76H32" id="be"/><use transform="matrix(0.04248971193415638,0,0,0.04248971193415638,0,0)" xlink:href="#be" id="s"/><path fill="#a9afb8" d="M141-36C126-15 110 5 73 4 37 3 15-17 15-53c-1-64 63-63 125-63 3-35-9-54-41-54-24 1-41 7-42 31l-33-3c5-37 33-52 76-52 45 0 72 20 72 64v82c-1 20 7 32 28 27v20c-31 9-61-2-59-35zM48-53c0 20 12 33 32 33 41-3 63-29 60-74-43 2-92-5-92 41" id="bf"/><path fill="#a9afb8" d="M179-190L93 31C79 59 56 82 12 73V49c39 6 53-20 64-50L1-190h34L92-34l54-156h33" id="bg"/><g id="t"><use transform="matrix(0.04248971193415638,0,0,0.04248971193415638,0,0)" xlink:href="#aN"/><use transform="matrix(0.04248971193415638,0,0,0.04248971193415638,12.704423868312757,0)" xlink:href="#bf"/><use transform="matrix(0.04248971193415638,0,0,0.04248971193415638,21.20236625514403,0)" xlink:href="#bg"/></g><path fill="#a9afb8" d="M64 0c3-98 48-159 88-221H18v-27h164v26C143-157 98-101 97 0H64" id="bh"/><path fill="#a9afb8" d="M68-38c1 34 0 65-14 84H32c9-13 17-26 17-46H33v-38h35" id="bi"/><g id="u"><use transform="matrix(0.04248971193415638,0,0,0.04248971193415638,0,0)" xlink:href="#bh"/><use transform="matrix(0.04248971193415638,0,0,0.04248971193415638,8.497942386831275,0)" xlink:href="#bi"/></g><path fill="#a9afb8" d="M101-251c82-7 93 87 43 132L82-64C71-53 59-42 53-27h129V0H18c2-99 128-94 128-182 0-28-16-43-45-43s-46 15-49 41l-32-3c6-41 34-60 81-64" id="bj"/><path fill="#a9afb8" d="M101-251c68 0 85 55 85 127S166 4 100 4C33 4 14-52 14-124c0-73 17-127 87-127zm-1 229c47 0 54-49 54-102s-4-102-53-102c-51 0-55 48-55 102 0 53 5 102 54 102" id="bk"/><path fill="#a9afb8" d="M155-56V0h-30v-56H8v-25l114-167h33v167h35v25h-35zm-30-156c-27 46-58 90-88 131h88v-131" id="bl"/><g id="v"><use transform="matrix(0.04248971193415638,0,0,0.04248971193415638,0,0)" xlink:href="#bj"/><use transform="matrix(0.04248971193415638,0,0,0.04248971193415638,8.497942386831275,0)" xlink:href="#bk"/><use transform="matrix(0.04248971193415638,0,0,0.04248971193415638,16.99588477366255,0)" xlink:href="#bj"/><use transform="matrix(0.04248971193415638,0,0,0.04248971193415638,25.493827160493822,0)" xlink:href="#bl"/></g><path d="M212-179c-10-28-35-45-73-45-59 0-87 40-87 99 0 60 29 101 89 101 43 0 62-24 78-52l27 14C228-24 195 4 139 4 59 4 22-46 18-125c-6-104 99-153 187-111 19 9 31 26 39 46" id="bm"/><path d="M84 4C-5 8 30-112 23-190h32v120c0 31 7 50 39 49 72-2 45-101 50-169h31l1 190h-30c-1-10 1-25-2-33-11 22-28 36-60 37" id="bn"/><path d="M24 0v-261h32V0H24" id="bo"/><path d="M59-47c-2 24 18 29 38 22v24C64 9 27 4 27-40v-127H5v-23h24l9-43h21v43h35v23H59v120" id="bp"/><path d="M24-231v-30h32v30H24zM24 0v-190h32V0H24" id="bq"/><path d="M108 0H70L1-190h34L89-25l56-165h34" id="br"/><path d="M100-194c62-1 85 37 85 99 1 63-27 99-86 99S16-35 15-95c0-66 28-99 85-99zM99-20c44 1 53-31 53-75 0-43-8-75-51-75s-53 32-53 75 10 74 51 75" id="bs"/><g id="w"><use transform="matrix(0.05,0,0,0.05,0,0)" xlink:href="#bm"/><use transform="matrix(0.05,0,0,0.05,12.950000000000001,0)" xlink:href="#bn"/><use transform="matrix(0.05,0,0,0.05,22.950000000000003,0)" xlink:href="#bo"/><use transform="matrix(0.05,0,0,0.05,26.900000000000002,0)" xlink:href="#bp"/><use transform="matrix(0.05,0,0,0.05,31.900000000000002,0)" xlink:href="#bq"/><use transform="matrix(0.05,0,0,0.05,35.85,0)" xlink:href="#br"/><use transform="matrix(0.05,0,0,0.05,44.85,0)" xlink:href="#bs"/></g><path d="M16-82v-28h88v28H16" id="bt"/><use transform="matrix(0.05,0,0,0.05,0,0)" xlink:href="#bt" id="x"/><path d="M117-194c89-4 53 116 60 194h-32v-121c0-31-8-49-39-48C34-167 62-67 57 0H25l-1-190h30c1 10-1 24 2 32 11-22 29-35 61-36" id="bu"/><path d="M210-169c-67 3-38 105-44 169h-31v-121c0-29-5-50-35-48C34-165 62-65 56 0H25l-1-190h30c1 10-1 24 2 32 10-44 99-50 107 0 11-21 27-35 58-36 85-2 47 119 55 194h-31v-121c0-29-5-49-35-48" id="bv"/><path d="M115-194c53 0 69 39 70 98 0 66-23 100-70 100C84 3 66-7 56-30L54 0H23l1-261h32v101c10-23 28-34 59-34zm-8 174c40 0 45-34 45-75 0-40-5-75-45-74-42 0-51 32-51 76 0 43 10 73 51 73" id="bw"/><path d="M114-163C36-179 61-72 57 0H25l-1-190h30c1 12-1 29 2 39 6-27 23-49 58-41v29" id="bx"/><path d="M100-194c63 0 86 42 84 106H49c0 40 14 67 53 68 26 1 43-12 49-29l28 8c-11 28-37 45-77 45C44 4 14-33 15-96c1-61 26-98 85-98zm52 81c6-60-76-77-97-28-3 7-6 17-6 28h103" id="by"/><path d="M33-154v-36h34v36H33zM33 0v-36h34V0H33" id="bz"/><g id="y"><use transform="matrix(0.05,0,0,0.05,0,0)" xlink:href="#bu"/><use transform="matrix(0.05,0,0,0.05,10,0)" xlink:href="#bs"/><use transform="matrix(0.05,0,0,0.05,20,0)" xlink:href="#bv"/><use transform="matrix(0.05,0,0,0.05,34.95,0)" xlink:href="#bw"/><use transform="matrix(0.05,0,0,0.05,44.95,0)" xlink:href="#bx"/><use transform="matrix(0.05,0,0,0.05,50.900000000000006,0)" xlink:href="#by"/><use transform="matrix(0.05,0,0,0.05,60.900000000000006,0)" xlink:href="#bz"/></g><path d="M135-143c-3-34-86-38-87 0 15 53 115 12 119 90S17 21 10-45l28-5c4 36 97 45 98 0-10-56-113-15-118-90-4-57 82-63 122-42 12 7 21 19 24 35" id="bA"/><g id="z"><use transform="matrix(0.05,0,0,0.05,0,0)" xlink:href="#bA"/><use transform="matrix(0.05,0,0,0.05,9,0)" xlink:href="#bp"/><use transform="matrix(0.05,0,0,0.05,14,0)" xlink:href="#bx"/></g><path d="M115-194c55 1 70 41 70 98S169 2 115 4C84 4 66-9 55-30l1 105H24l-1-265h31l2 30c10-21 28-34 59-34zm-8 174c40 0 45-34 45-75s-6-73-45-74c-42 0-51 32-51 76 0 43 10 73 51 73" id="bB"/><g id="A"><use transform="matrix(0.05,0,0,0.05,0,0)" xlink:href="#bp"/><use transform="matrix(0.05,0,0,0.05,5,0)" xlink:href="#bq"/><use transform="matrix(0.05,0,0,0.05,8.95,0)" xlink:href="#bB"/><use transform="matrix(0.05,0,0,0.05,18.95,0)" xlink:href="#bs"/><use transform="matrix(0.05,0,0,0.05,28.950000000000003,0)" xlink:href="#bz"/></g><path d="M141-36C126-15 110 5 73 4 37 3 15-17 15-53c-1-64 63-63 125-63 3-35-9-54-41-54-24 1-41 7-42 31l-33-3c5-37 33-52 76-52 45 0 72 20 72 64v82c-1 20 7 32 28 27v20c-31 9-61-2-59-35zM48-53c0 20 12 33 32 33 41-3 63-29 60-74-43 2-92-5-92 41" id="bC"/><path d="M96-169c-40 0-48 33-48 73s9 75 48 75c24 0 41-14 43-38l32 2c-6 37-31 61-74 61-59 0-76-41-82-99-10-93 101-131 147-64 4 7 5 14 7 22l-32 3c-4-21-16-35-41-35" id="bD"/><g id="B"><use transform="matrix(0.05,0,0,0.05,0,0)" xlink:href="#bC"/><use transform="matrix(0.05,0,0,0.05,10,0)" xlink:href="#bx"/><use transform="matrix(0.05,0,0,0.05,15.949999999999998,0)" xlink:href="#by"/><use transform="matrix(0.05,0,0,0.05,25.950000000000003,0)" xlink:href="#bC"/><use transform="matrix(0.05,0,0,0.05,35.95,0)" xlink:href="#bD"/><use transform="matrix(0.05,0,0,0.05,44.95,0)" xlink:href="#bn"/><use transform="matrix(0.05,0,0,0.05,54.95,0)" xlink:href="#bo"/><use transform="matrix(0.05,0,0,0.05,58.900000000000006,0)" xlink:href="#bp"/><use transform="matrix(0.05,0,0,0.05,63.900000000000006,0)" xlink:href="#bq"/><use transform="matrix(0.05,0,0,0.05,67.85000000000001,0)" xlink:href="#br"/><use transform="matrix(0.05,0,0,0.05,76.85000000000001,0)" xlink:href="#bs"/><use transform="matrix(0.05,0,0,0.05,86.85000000000001,0)" xlink:href="#bz"/></g><path d="M101-234c-31-9-42 10-38 44h38v23H63V0H32v-167H5v-23h27c-7-52 17-82 69-68v24" id="bE"/><g id="C"><use transform="matrix(0.05,0,0,0.05,0,0)" xlink:href="#bE"/><use transform="matrix(0.05,0,0,0.05,5,0)" xlink:href="#bo"/><use transform="matrix(0.05,0,0,0.05,8.95,0)" xlink:href="#bs"/><use transform="matrix(0.05,0,0,0.05,18.95,0)" xlink:href="#bC"/><use transform="matrix(0.05,0,0,0.05,28.950000000000003,0)" xlink:href="#bp"/></g><path d="M85-194c31 0 48 13 60 33l-1-100h32l1 261h-30c-2-10 0-23-3-31C134-8 116 4 85 4 32 4 16-35 15-94c0-66 23-100 70-100zm9 24c-40 0-46 34-46 75 0 40 6 74 45 74 42 0 51-32 51-76 0-42-9-74-50-73" id="bF"/><g id="D"><use transform="matrix(0.05,0,0,0.05,0,0)" xlink:href="#bx"/><use transform="matrix(0.05,0,0,0.05,5.95,0)" xlink:href="#by"/><use transform="matrix(0.05,0,0,0.05,15.949999999999998,0)" xlink:href="#bu"/><use transform="matrix(0.05,0,0,0.05,25.950000000000003,0)" xlink:href="#bF"/><use transform="matrix(0.05,0,0,0.05,35.95,0)" xlink:href="#bq"/><use transform="matrix(0.05,0,0,0.05,39.900000000000006,0)" xlink:href="#bv"/><use transform="matrix(0.05,0,0,0.05,54.85,0)" xlink:href="#bq"/><use transform="matrix(0.05,0,0,0.05,58.80000000000001,0)" xlink:href="#by"/><use transform="matrix(0.05,0,0,0.05,68.80000000000001,0)" xlink:href="#bu"/><use transform="matrix(0.05,0,0,0.05,78.80000000000001,0)" xlink:href="#bp"/><use transform="matrix(0.05,0,0,0.05,83.80000000000001,0)" xlink:href="#bs"/><use transform="matrix(0.05,0,0,0.05,93.80000000000001,0)" xlink:href="#bz"/></g><g id="E"><use transform="matrix(0.05,0,0,0.05,0,0)" xlink:href="#bE"/><use transform="matrix(0.05,0,0,0.05,5,0)" xlink:href="#bo"/><use transform="matrix(0.05,0,0,0.05,8.95,0)" xlink:href="#bs"/><use transform="matrix(0.05,0,0,0.05,18.95,0)" xlink:href="#bC"/><use transform="matrix(0.05,0,0,0.05,28.950000000000003,0)" xlink:href="#bp"/></g><path d="M30-248c87 1 191-15 191 75 0 78-77 80-158 76V0H30v-248zm33 125c57 0 124 11 124-50 0-59-68-47-124-48v98" id="bG"/><g id="F"><use transform="matrix(0.05,0,0,0.05,0,0)" xlink:href="#bm"/><use transform="matrix(0.05,0,0,0.05,12.950000000000001,0)" xlink:href="#bC"/><use transform="matrix(0.05,0,0,0.05,22.950000000000003,0)" xlink:href="#bo"/><use transform="matrix(0.05,0,0,0.05,26.900000000000002,0)" xlink:href="#bD"/><use transform="matrix(0.05,0,0,0.05,35.900000000000006,0)" xlink:href="#bn"/><use transform="matrix(0.05,0,0,0.05,45.900000000000006,0)" xlink:href="#bo"/><use transform="matrix(0.05,0,0,0.05,49.85000000000001,0)" xlink:href="#bC"/><use transform="matrix(0.05,0,0,0.05,59.85,0)" xlink:href="#bx"/><use transform="matrix(0.05,0,0,0.05,65.80000000000001,0)" xlink:href="#bG"/><use transform="matrix(0.05,0,0,0.05,77.80000000000001,0)" xlink:href="#bm"/></g><path d="M87 75C49 33 22-17 22-94c0-76 28-126 65-167h31c-38 41-64 92-64 168S80 34 118 75H87" id="bH"/><path d="M33-261c38 41 65 92 65 168S71 34 33 75H2C39 34 66-17 66-93S39-220 2-261h31" id="bI"/><g id="G"><use transform="matrix(0.05,0,0,0.05,0,0)" xlink:href="#bH"/><use transform="matrix(0.05,0,0,0.05,5.95,0)" xlink:href="#bI"/></g><path d="M205 0l-28-72H64L36 0H1l101-248h38L239 0h-34zm-38-99l-47-123c-12 45-31 82-46 123h93" id="bJ"/><g id="H"><use transform="matrix(0.05,0,0,0.05,0,0)" xlink:href="#bJ"/><use transform="matrix(0.05,0,0,0.05,12,0)" xlink:href="#bu"/><use transform="matrix(0.05,0,0,0.05,22,0)" xlink:href="#bq"/><use transform="matrix(0.05,0,0,0.05,25.950000000000003,0)" xlink:href="#bv"/><use transform="matrix(0.05,0,0,0.05,40.9,0)" xlink:href="#bC"/><use transform="matrix(0.05,0,0,0.05,50.9,0)" xlink:href="#bo"/></g><g id="I"><use transform="matrix(0.05,0,0,0.05,0,0)" xlink:href="#by"/><use transform="matrix(0.05,0,0,0.05,10,0)" xlink:href="#bA"/><use transform="matrix(0.05,0,0,0.05,19,0)" xlink:href="#bB"/><use transform="matrix(0.05,0,0,0.05,29,0)" xlink:href="#by"/><use transform="matrix(0.05,0,0,0.05,39,0)" xlink:href="#bD"/><use transform="matrix(0.05,0,0,0.05,48,0)" xlink:href="#bq"/><use transform="matrix(0.05,0,0,0.05,51.95,0)" xlink:href="#by"/><use transform="matrix(0.05,0,0,0.05,61.95,0)" xlink:href="#bz"/></g><path d="M9 0v-24l116-142H16v-24h144v24L44-24h123V0H9" id="bK"/><g id="J"><use transform="matrix(0.05,0,0,0.05,0,0)" xlink:href="#bx"/><use transform="matrix(0.05,0,0,0.05,5.95,0)" xlink:href="#bC"/><use transform="matrix(0.05,0,0,0.05,15.949999999999998,0)" xlink:href="#bK"/><use transform="matrix(0.05,0,0,0.05,24.95,0)" xlink:href="#bC"/><use transform="matrix(0.05,0,0,0.05,34.95,0)" xlink:href="#bz"/></g><g id="K"><use transform="matrix(0.05,0,0,0.05,0,0)" xlink:href="#by"/><use transform="matrix(0.05,0,0,0.05,10,0)" xlink:href="#bF"/><use transform="matrix(0.05,0,0,0.05,20,0)" xlink:href="#bC"/><use transform="matrix(0.05,0,0,0.05,30,0)" xlink:href="#bF"/><use transform="matrix(0.05,0,0,0.05,40,0)" xlink:href="#bz"/></g><g id="L"><use transform="matrix(0.05,0,0,0.05,0,0)" xlink:href="#bq"/><use transform="matrix(0.05,0,0,0.05,3.95,0)" xlink:href="#bu"/><use transform="matrix(0.05,0,0,0.05,13.949999999999998,0)" xlink:href="#bp"/></g><g id="M"><use transform="matrix(0.05,0,0,0.05,0,0)" xlink:href="#bB"/><use transform="matrix(0.05,0,0,0.05,10,0)" xlink:href="#by"/><use transform="matrix(0.05,0,0,0.05,20,0)" xlink:href="#bA"/><use transform="matrix(0.05,0,0,0.05,29,0)" xlink:href="#bs"/><use transform="matrix(0.05,0,0,0.05,39,0)" xlink:href="#bz"/></g><g id="N"><use transform="matrix(0.05,0,0,0.05,0,0)" xlink:href="#bt"/><use transform="matrix(0.05,0,0,0.05,5.95,0)" xlink:href="#bm"/><use transform="matrix(0.05,0,0,0.05,18.900000000000002,0)" xlink:href="#bC"/><use transform="matrix(0.05,0,0,0.05,28.900000000000002,0)" xlink:href="#bo"/><use transform="matrix(0.05,0,0,0.05,32.85,0)" xlink:href="#bD"/><use transform="matrix(0.05,0,0,0.05,41.85,0)" xlink:href="#bn"/><use transform="matrix(0.05,0,0,0.05,51.85,0)" xlink:href="#bo"/><use transform="matrix(0.05,0,0,0.05,55.800000000000004,0)" xlink:href="#bC"/><use transform="matrix(0.05,0,0,0.05,65.80000000000001,0)" xlink:href="#bx"/><use transform="matrix(0.05,0,0,0.05,71.75000000000001,0)" xlink:href="#bG"/><use transform="matrix(0.05,0,0,0.05,82.40000000000002,0)" xlink:href="#bJ"/></g><path d="M143 4C61 4 22-44 18-125c-5-107 100-154 193-111 17 8 29 25 37 43l-32 9c-13-25-37-40-76-40-61 0-88 39-88 99 0 61 29 100 91 101 35 0 62-11 79-27v-45h-74v-28h105v86C228-13 192 4 143 4" id="bL"/><path d="M24-231v-30h32v30H24zM-9 49c24 4 33-6 33-30v-209h32V24c2 40-23 58-65 49V49" id="bM"/><g id="O"><use transform="matrix(0.05,0,0,0.05,0,0)" xlink:href="#bL"/><use transform="matrix(0.05,0,0,0.05,14,0)" xlink:href="#bx"/><use transform="matrix(0.05,0,0,0.05,19.95,0)" xlink:href="#bC"/><use transform="matrix(0.05,0,0,0.05,29.950000000000003,0)" xlink:href="#bu"/><use transform="matrix(0.05,0,0,0.05,39.95,0)" xlink:href="#bM"/><use transform="matrix(0.05,0,0,0.05,43.900000000000006,0)" xlink:href="#bC"/></g><g id="P"><use transform="matrix(0.05,0,0,0.05,0,0)" xlink:href="#bm"/><use transform="matrix(0.05,0,0,0.05,12.950000000000001,0)" xlink:href="#bn"/><use transform="matrix(0.05,0,0,0.05,22.950000000000003,0)" xlink:href="#bo"/><use transform="matrix(0.05,0,0,0.05,26.900000000000002,0)" xlink:href="#bp"/><use transform="matrix(0.05,0,0,0.05,31.900000000000002,0)" xlink:href="#bq"/><use transform="matrix(0.05,0,0,0.05,35.85,0)" xlink:href="#br"/><use transform="matrix(0.05,0,0,0.05,44.85,0)" xlink:href="#bs"/><use transform="matrix(0.05,0,0,0.05,54.85,0)" xlink:href="#bA"/><use transform="matrix(0.05,0,0,0.05,63.85,0)" xlink:href="#bz"/></g><path d="M26 75v-336h71v23H56V52h41v23H26" id="bN"/><path d="M3 75V52h41v-290H3v-23h71V75H3" id="bO"/><g id="Q"><use transform="matrix(0.05,0,0,0.05,0,0)" xlink:href="#bN"/><use transform="matrix(0.05,0,0,0.05,5,0)" xlink:href="#bO"/></g><g id="R"><use transform="matrix(0.05,0,0,0.05,0,0)" xlink:href="#bJ"/><use transform="matrix(0.05,0,0,0.05,12,0)" xlink:href="#bu"/><use transform="matrix(0.05,0,0,0.05,22,0)" xlink:href="#bq"/><use transform="matrix(0.05,0,0,0.05,25.950000000000003,0)" xlink:href="#bv"/><use transform="matrix(0.05,0,0,0.05,40.9,0)" xlink:href="#bC"/><use transform="matrix(0.05,0,0,0.05,50.9,0)" xlink:href="#bo"/><use transform="matrix(0.05,0,0,0.05,54.85,0)" xlink:href="#by"/><use transform="matrix(0.05,0,0,0.05,64.85,0)" xlink:href="#bA"/><use transform="matrix(0.05,0,0,0.05,73.85,0)" xlink:href="#bz"/></g><g id="S"><use transform="matrix(0.05,0,0,0.05,0,0)" xlink:href="#bN"/><use transform="matrix(0.05,0,0,0.05,5,0)" xlink:href="#bO"/></g><path d="M177-190C167-65 218 103 67 71c-23-6-38-20-44-43l32-5c15 47 100 32 89-28v-30C133-14 115 1 83 1 29 1 15-40 15-95c0-56 16-97 71-98 29-1 48 16 59 35 1-10 0-23 2-32h30zM94-22c36 0 50-32 50-73 0-42-14-75-50-75-39 0-46 34-46 75s6 73 46 73" id="bP"/><g id="T"><use transform="matrix(0.05,0,0,0.05,0,0)" xlink:href="#bJ"/><use transform="matrix(0.05,0,0,0.05,12,0)" xlink:href="#bP"/><use transform="matrix(0.05,0,0,0.05,22,0)" xlink:href="#bx"/><use transform="matrix(0.05,0,0,0.05,27.950000000000003,0)" xlink:href="#by"/><use transform="matrix(0.05,0,0,0.05,37.95,0)" xlink:href="#bP"/><use transform="matrix(0.05,0,0,0.05,47.95,0)" xlink:href="#bC"/><use transform="matrix(0.05,0,0,0.05,57.95,0)" xlink:href="#bx"/><use transform="matrix(0.05,0,0,0.05,63.900000000000006,0)" xlink:href="#bH"/><use transform="matrix(0.05,0,0,0.05,69.85000000000001,0)" xlink:href="#bI"/></g><path d="M30 0v-248h187v28H63v79h144v27H63v87h162V0H30" id="bQ"/><g id="U"><use transform="matrix(0.05,0,0,0.05,0,0)" xlink:href="#bQ"/><use transform="matrix(0.05,0,0,0.05,12,0)" xlink:href="#bo"/><use transform="matrix(0.05,0,0,0.05,15.949999999999998,0)" xlink:href="#bq"/><use transform="matrix(0.05,0,0,0.05,19.9,0)" xlink:href="#bv"/><use transform="matrix(0.05,0,0,0.05,34.85,0)" xlink:href="#bq"/><use transform="matrix(0.05,0,0,0.05,38.800000000000004,0)" xlink:href="#bu"/><use transform="matrix(0.05,0,0,0.05,48.800000000000004,0)" xlink:href="#bC"/><use transform="matrix(0.05,0,0,0.05,58.800000000000004,0)" xlink:href="#bx"/></g><g id="V"><use transform="matrix(0.05,0,0,0.05,0,0)" xlink:href="#bH"/><use transform="matrix(0.05,0,0,0.05,5.95,0)" xlink:href="#bI"/></g><path d="M127-220V0H93v-220H8v-28h204v28h-85" id="bR"/><g id="W"><use transform="matrix(0.05,0,0,0.05,0,0)" xlink:href="#bt"/><use transform="matrix(0.05,0,0,0.05,5.95,0)" xlink:href="#bm"/><use transform="matrix(0.05,0,0,0.05,18.900000000000002,0)" xlink:href="#bC"/><use transform="matrix(0.05,0,0,0.05,28.900000000000002,0)" xlink:href="#bo"/><use transform="matrix(0.05,0,0,0.05,32.85,0)" xlink:href="#bD"/><use transform="matrix(0.05,0,0,0.05,41.85,0)" xlink:href="#bn"/><use transform="matrix(0.05,0,0,0.05,51.85,0)" xlink:href="#bo"/><use transform="matrix(0.05,0,0,0.05,55.800000000000004,0)" xlink:href="#bC"/><use transform="matrix(0.05,0,0,0.05,65.80000000000001,0)" xlink:href="#bx"/><use transform="matrix(0.05,0,0,0.05,71.75000000000001,0)" xlink:href="#bG"/><use transform="matrix(0.05,0,0,0.05,83.75000000000001,0)" xlink:href="#bx"/><use transform="matrix(0.05,0,0,0.05,89.70000000000002,0)" xlink:href="#bs"/><use transform="matrix(0.05,0,0,0.05,99.70000000000002,0)" xlink:href="#bF"/><use transform="matrix(0.05,0,0,0.05,109.7,0)" xlink:href="#bn"/><use transform="matrix(0.05,0,0,0.05,119.7,0)" xlink:href="#bD"/><use transform="matrix(0.05,0,0,0.05,128.70000000000002,0)" xlink:href="#bD"/><use transform="matrix(0.05,0,0,0.05,137.70000000000002,0)" xlink:href="#bq"/><use transform="matrix(0.05,0,0,0.05,141.65,0)" xlink:href="#bs"/><use transform="matrix(0.05,0,0,0.05,151.65,0)" xlink:href="#bu"/><use transform="matrix(0.05,0,0,0.05,161.65,0)" xlink:href="#bR"/></g></defs></g></svg>